{
  "accessors": [
    {
      "bufferView": 2,
      "componentType": 5126,
      "count": 84,
      "max": [
        -143.90921020507813,
        393.7007751464844,
        63.04082489013672
      ],
      "min": [
        -171.222412109375,
        -393.7007751464844,
        13.383642196655273
      ],
      "type": "VEC3"
    },
    {
      "bufferView": 2,
      "byteOffset": 1008,
      "componentType": 5126,
      "count": 84,
      "max": [
        0.967085063457489,
        0.14774759113788605,
        0.46261727809906006
      ],
      "min": [
        0.8859001994132996,
        -0.1482844054698944,
        0.2498980313539505
      ],
      "type": "VEC3"
    },
    {
      "bufferView": 1,
      "componentType": 5126,
      "count": 84,
      "max": [
        3.55779767036438,
        0.9550518989562988
      ],
      "min": [
        -2.6918578147888184,
        0.06334099173545837
      ],
      "type": "VEC2"
    },
    {
      "bufferView": 0,
      "componentType": 5125,
      "count": 360,
      "type": "SCALAR"
    },
    {
      "bufferView": 2,
      "byteOffset": 2016,
      "componentType": 5126,
      "count": 1838,
      "max": [
        238.57785034179688,
        552.9849853515625,
        111.56956481933594
      ],
      "min": [
        -177.5937957763672,
        -202.1416015625,
        -22.277563095092773
      ],
      "type": "VEC3"
    },
    {
      "bufferView": 2,
      "byteOffset": 24072,
      "componentType": 5126,
      "count": 1838,
      "max": [
        1.0,
        1.0,
        1.0
      ],
      "min": [
        -1.0,
        -1.0,
        -1.0
      ],
      "type": "VEC3"
    },
    {
      "bufferView": 1,
      "byteOffset": 672,
      "componentType": 5126,
      "count": 1838,
      "max": [
        6.987687110900879,
        6.771482467651367
      ],
      "min": [
        0.0,
        0.0
      ],
      "type": "VEC2"
    },
    {
      "bufferView": 0,
      "byteOffset": 1440,
      "componentType": 5125,
      "count": 3972,
      "type": "SCALAR"
    },
    {
      "bufferView": 2,
      "byteOffset": 46128,
      "componentType": 5126,
      "count": 1922,
      "max": [
        234.2176513671875,
        548.6729736328125,
        106.26393127441406
      ],
      "min": [
        -163.66038513183594,
        -200.95498657226563,
        -26.813976287841797
      ],
      "type": "VEC3"
    },
    {
      "bufferView": 2,
      "byteOffset": 69192,
      "componentType": 5126,
      "count": 1922,
      "max": [
        0.9998643398284912,
        0.9999950528144836,
        0.9999845027923584
      ],
      "min": [
        -0.999864399433136,
        -0.9999950528144836,
        -0.9999843835830688
      ],
      "type": "VEC3"
    },
    {
      "bufferView": 1,
      "byteOffset": 15376,
      "componentType": 5126,
      "count": 1922,
      "max": [
        6.987689018249512,
        6.454729080200195
      ],
      "min": [
        0.0,
        0.0
      ],
      "type": "VEC2"
    },
    {
      "bufferView": 0,
      "byteOffset": 17328,
      "componentType": 5125,
      "count": 3612,
      "type": "SCALAR"
    },
    {
      "bufferView": 2,
      "byteOffset": 92256,
      "componentType": 5126,
      "count": 832,
      "max": [
        234.40621948242188,
        545.1722412109375,
        99.32316589355469
      ],
      "min": [
        -156.59559631347656,
        -199.92755126953125,
        -13.392509460449219
      ],
      "type": "VEC3"
    },
    {
      "bufferView": 2,
      "byteOffset": 102240,
      "componentType": 5126,
      "count": 832,
      "max": [
        0.9427158236503601,
        0.9443143606185913,
        0.9997961521148682
      ],
      "min": [
        -0.9427158236503601,
        -0.944321870803833,
        -0.9997961521148682
      ],
      "type": "VEC3"
    },
    {
      "bufferView": 1,
      "byteOffset": 30752,
      "componentType": 5126,
      "count": 832,
      "max": [
        4.177549362182617,
        4.5596113204956055
      ],
      "min": [
        0.0,
        0.0
      ],
      "type": "VEC2"
    },
    {
      "bufferView": 0,
      "byteOffset": 31776,
      "componentType": 5125,
      "count": 1248,
      "type": "SCALAR"
    },
    {
      "bufferView": 2,
      "byteOffset": 112224,
      "componentType": 5126,
      "count": 962,
      "max": [
        393.70159912109375,
        393.713134765625,
        70.50308990478516
      ],
      "min": [
        -393.70159912109375,
        -393.71307373046875,
        -157.4790802001953
      ],
      "type": "VEC3"
    },
    {
      "bufferView": 2,
      "byteOffset": 123768,
      "componentType": 5126,
      "count": 962,
      "max": [
        1.0,
        1.0,
        0.0003120197798125446
      ],
      "min": [
        -1.0,
        -1.0,
        -1.0
      ],
      "type": "VEC3"
    },
    {
      "bufferView": 1,
      "byteOffset": 37408,
      "componentType": 5126,
      "count": 962,
      "max": [
        6.795244216918945,
        5.057188034057617
      ],
      "min": [
        0.0,
        0.0
      ],
      "type": "VEC2"
    },
    {
      "bufferView": 0,
      "byteOffset": 36768,
      "componentType": 5125,
      "count": 4800,
      "type": "SCALAR"
    },
    {
      "bufferView": 2,
      "byteOffset": 135312,
      "componentType": 5126,
      "count": 22080,
      "max": [
        15.48745346069336,
        767.3013916015625,
        57.30873107910156
      ],
      "min": [
        -385.1061096191406,
        -44.04405975341797,
        -129.90843200683594
      ],
      "type": "VEC3"
    },
    {
      "bufferView": 2,
      "byteOffset": 400272,
      "componentType": 5126,
      "count": 22080,
      "max": [
        0.9999701380729675,
        0.9999909400939941,
        0.9999484419822693
      ],
      "min": [
        -0.9999966025352478,
        -0.9999578595161438,
        -0.9997314214706421
      ],
      "type": "VEC3"
    },
    {
      "bufferView": 1,
      "byteOffset": 45104,
      "componentType": 5126,
      "count": 22080,
      "max": [
        17.1077823638916,
        17.223125457763672
      ],
      "min": [
        0.0,
        0.0
      ],
      "type": "VEC2"
    },
    {
      "bufferView": 0,
      "byteOffset": 55968,
      "componentType": 5125,
      "count": 96600,
      "type": "SCALAR"
    },
    {
      "bufferView": 2,
      "byteOffset": 665232,
      "componentType": 5126,
      "count": 232,
      "max": [
        403.35736083984375,
        93.861572265625,
        261.6281433105469
      ],
      "min": [
        -20.495521545410156,
        -4.815422058105469,
        0.0
      ],
      "type": "VEC3"
    },
    {
      "bufferView": 2,
      "byteOffset": 668016,
      "componentType": 5126,
      "count": 232,
      "max": [
        0.9759799242019653,
        0.9914804100990295,
        0.9988567233085632
      ],
      "min": [
        -0.9987707734107971,
        -0.9991912245750427,
        -0.9721252918243408
      ],
      "type": "VEC3"
    },
    {
      "bufferView": 1,
      "byteOffset": 221744,
      "componentType": 5126,
      "count": 232,
      "max": [
        1.9855625629425049,
        0.7582199573516846
      ],
      "min": [
        0.0,
        0.0
      ],
      "type": "VEC2"
    },
    {
      "bufferView": 0,
      "byteOffset": 442368,
      "componentType": 5125,
      "count": 1020,
      "type": "SCALAR"
    },
    {
      "bufferView": 2,
      "byteOffset": 670800,
      "componentType": 5126,
      "count": 497,
      "max": [
        578.8939819335938,
        636.7254028320313,
        296.59332275390625
      ],
      "min": [
        -29.1940975189209,
        -122.24855041503906,
        -3.2704076766967773
      ],
      "type": "VEC3"
    },
    {
      "bufferView": 2,
      "byteOffset": 676764,
      "componentType": 5126,
      "count": 497,
      "max": [
        0.9915000200271606,
        0.984003484249115,
        0.9952055215835571
      ],
      "min": [
        -0.9949225187301636,
        -0.9992501735687256,
        -0.9999685883522034
      ],
      "type": "VEC3"
    },
    {
      "bufferView": 1,
      "byteOffset": 223600,
      "componentType": 5126,
      "count": 497,
      "max": [
        1.0346907377243042,
        1.639993667602539
      ],
      "min": [
        -0.20471549034118652,
        0.05569621920585632
      ],
      "type": "VEC2"
    },
    {
      "bufferView": 0,
      "byteOffset": 446448,
      "componentType": 5125,
      "count": 2184,
      "type": "SCALAR"
    },
    {
      "bufferView": 2,
      "byteOffset": 682728,
      "componentType": 5126,
      "count": 525,
      "max": [
        393.7007751464844,
        393.7007751464844,
        70.50308990478516
      ],
      "min": [
        -393.7007751464844,
        -393.7007751464844,
        -12.688749313354492
      ],
      "type": "VEC3"
    },
    {
      "bufferView": 2,
      "byteOffset": 689028,
      "componentType": 5126,
      "count": 525,
      "max": [
        0.5309552550315857,
        0.18033736944198608,
        0.9999876022338867
      ],
      "min": [
        -0.3827761113643646,
        -0.16992494463920593,
        0.844976544380188
      ],
      "type": "VEC3"
    },
    {
      "bufferView": 1,
      "byteOffset": 227576,
      "componentType": 5126,
      "count": 525,
      "max": [
        7.709934234619141,
        8.376201629638672
      ],
      "min": [
        0.0,
        0.0
      ],
      "type": "VEC2"
    },
    {
      "bufferView": 0,
      "byteOffset": 455184,
      "componentType": 5125,
      "count": 2640,
      "type": "SCALAR"
    },
    {
      "bufferView": 2,
      "byteOffset": 695328,
      "componentType": 5126,
      "count": 315,
      "max": [
        97.80070495605469,
        393.7007751464844,
        16.039710998535156
      ],
      "min": [
        -13.743021965026855,
        -393.7007751464844,
        -84.21639251708984
      ],
      "type": "VEC3"
    },
    {
      "bufferView": 2,
      "byteOffset": 699108,
      "componentType": 5126,
      "count": 315,
      "max": [
        0.9966585636138916,
        0.1659986525774002,
        0.9999133348464966
      ],
      "min": [
        -0.982998788356781,
        -0.15563377737998962,
        0.0801277607679367
      ],
      "type": "VEC3"
    },
    {
      "bufferView": 1,
      "byteOffset": 231776,
      "componentType": 5126,
      "count": 315,
      "max": [
        8.850866317749023,
        2.6814277172088623
      ],
      "min": [
        0.0,
        0.0
      ],
      "type": "VEC2"
    },
    {
      "bufferView": 0,
      "byteOffset": 465744,
      "componentType": 5125,
      "count": 1680,
      "type": "SCALAR"
    }
  ],
  "asset": {
    "extras": {
      "author": "filthycent (https://sketchfab.com/filthycent)",
      "license": "CC-BY-4.0 (http://creativecommons.org/licenses/by/4.0/)",
      "source": "https://sketchfab.com/3d-models/trench-4d625a6de5634518a930cb202cf4d2ad",
      "title": "Trench"
    },
    "generator": "Sketchfab-12.68.0",
    "version": "2.0"
  },
  "bufferViews": [
    {
      "buffer": 0,
      "byteLength": 472464,
      "name": "floatBufferViews",
      "target": 34963
    },
    {
      "buffer": 0,
      "byteLength": 234296,
      "byteOffset": 472464,
      "byteStride": 8,
      "name": "floatBufferViews",
      "target": 34962
    },
    {
      "buffer": 0,
      "byteLength": 702888,
      "byteOffset": 706760,
      "byteStride": 12,
      "name": "floatBufferViews",
      "target": 34962
    }
  ],
  "buffers": [
    {
      "byteLength": 1409648,
      "uri": "scene.bin"
    }
  ],
  "images": [
    {
      "uri": "textures/cliff_baseColor.jpeg"
    },
    {
      "uri": "textures/wood1_baseColor.png"
    },
    {
      "uri": "textures/wood2_baseColor.png"
    },
    {
      "uri": "textures/wood_baseColor.jpeg"
    },
    {
      "uri": "textures/boki_baseColor.jpeg"
    },
    {
      "uri": "textures/worek_baseColor.png"
    },
    {
      "uri": "textures/worek_metallicRoughness.png"
    },
    {
      "uri": "textures/stone_baseColor.jpeg"
    },
    {
      "uri": "textures/ziemia_baseColor.jpeg"
    },
    {
      "uri": "textures/ziemia1_baseColor.jpeg"
    },
    {
      "uri": "textures/ziemia1_metallicRoughness.png"
    }
  ],
  "materials": [
    {
      "name": "cliff",
      "pbrMetallicRoughness": {
        "baseColorTexture": {
          "index": 0
        },
        "metallicFactor": 0.0,
        "roughnessFactor": 0.7000000000000001
      }
    },
    {
      "name": "wood1",
      "pbrMetallicRoughness": {
        "baseColorTexture": {
          "index": 1
        },
        "metallicFactor": 0.0,
        "roughnessFactor": 0.7000000000000001
      }
    },
    {
      "name": "wood2",
      "pbrMetallicRoughness": {
        "baseColorTexture": {
          "index": 2
        },
        "metallicFactor": 0.0,
        "roughnessFactor": 0.7000000000000001
      }
    },
    {
      "name": "wood",
      "pbrMetallicRoughness": {
        "baseColorTexture": {
          "index": 3
        },
        "metallicFactor": 0.0,
        "roughnessFactor": 0.7000000000000001
      }
    },
    {
      "name": "boki",
      "pbrMetallicRoughness": {
        "baseColorTexture": {
          "index": 4
        },
        "metallicFactor": 0.0,
        "roughnessFactor": 0.7000000000000001
      }
    },
    {
      "name": "worek",
      "occlusionTexture": {
        "index": 6
      },
      "pbrMetallicRoughness": {
        "baseColorTexture": {
          "index": 5
        },
        "metallicFactor": 0.0,
        "metallicRoughnessTexture": {
          "index": 6
        },
        "roughnessFactor": 0.8
      }
    },
    {
      "name": "stone",
      "pbrMetallicRoughness": {
        "baseColorTexture": {
          "index": 7
        },
        "metallicFactor": 0.0,
        "roughnessFactor": 0.6
      }
    },
    {
      "name": "ziemia",
      "pbrMetallicRoughness": {
        "baseColorTexture": {
          "index": 8
        },
        "metallicFactor": 0.0,
        "roughnessFactor": 0.9
      }
    },
    {
      "name": "ziemia1",
      "occlusionTexture": {
        "index": 10
      },
      "pbrMetallicRoughness": {
        "baseColorTexture": {
          "index": 9
        },
        "metallicFactor": 0.0,
        "metallicRoughnessTexture": {
          "index": 10
        },
        "roughnessFactor": 0.7000000000000001
      }
    }
  ],
  "meshes": [
    {
      "name": "Box001_cliff_0",
      "primitives": [
        {
          "attributes": {
            "NORMAL": 1,
            "POSITION": 0,
            "TEXCOORD_0": 2
          },
          "indices": 3,
          "material": 0,
          "mode": 4
        }
      ]
    },
    {
      "name": "Cylinder003_wood1_0",
      "primitives": [
        {
          "attributes": {
            "NORMAL": 5,
            "POSITION": 4,
            "TEXCOORD_0": 6
          },
          "indices": 7,
          "material": 1,
          "mode": 4
        }
      ]
    },
    {
      "name": "Cylinder003_wood2_0",
      "primitives": [
        {
          "attributes": {
            "NORMAL": 9,
            "POSITION": 8,
            "TEXCOORD_0": 10
          },
          "indices": 11,
          "material": 2,
          "mode": 4
        }
      ]
    },
    {
      "name": "Cylinder003_wood_0",
      "primitives": [
        {
          "attributes": {
            "NORMAL": 13,
            "POSITION": 12,
            "TEXCOORD_0": 14
          },
          "indices": 15,
          "material": 3,
          "mode": 4
        }
      ]
    },
    {
      "name": "Object001_boki_0",
      "primitives": [
        {
          "attributes": {
            "NORMAL": 17,
            "POSITION": 16,
            "TEXCOORD_0": 18
          },
          "indices": 19,
          "material": 4,
          "mode": 4
        }
      ]
    },
    {
      "name": "Box219_worek_0",
      "primitives": [
        {
          "attributes": {
            "NORMAL": 21,
            "POSITION": 20,
            "TEXCOORD_0": 22
          },
          "indices": 23,
          "material": 5,
          "mode": 4
        }
      ]
    },
    {
      "name": "Box224_wood1_0",
      "primitives": [
        {
          "attributes": {
            "NORMAL": 25,
            "POSITION": 24,
            "TEXCOORD_0": 26
          },
          "indices": 27,
          "material": 1,
          "mode": 4
        }
      ]
    },
    {
      "name": "Box225_stone_0",
      "primitives": [
        {
          "attributes": {
            "NORMAL": 29,
            "POSITION": 28,
            "TEXCOORD_0": 30
          },
          "indices": 31,
          "material": 6,
          "mode": 4
        }
      ]
    },
    {
      "name": "Object002_ziemia_0",
      "primitives": [
        {
          "attributes": {
            "NORMAL": 33,
            "POSITION": 32,
            "TEXCOORD_0": 34
          },
          "indices": 35,
          "material": 7,
          "mode": 4
        }
      ]
    },
    {
      "name": "Object003_ziemia1_0",
      "primitives": [
        {
          "attributes": {
            "NORMAL": 37,
            "POSITION": 36,
            "TEXCOORD_0": 38
          },
          "indices": 39,
          "material": 8,
          "mode": 4
        }
      ]
    }
  ],
  "nodes": [
    {
      "children": [
        1
      ],
      "matrix": [
        1.0,
        0.0,
        0.0,
        0.0,
        0.0,
        2.220446049250313e-16,
        -1.0,
        0.0,
        0.0,
        1.0,
        2.220446049250313e-16,
        0.0,
        0.0,
        0.0,
        0.0,
        1.0
      ],
      "name": "Sketchfab_model"
    },
    {
      "children": [
        2
      ],
      "matrix": [
        1.0,
        0.0,
        0.0,
        0.0,
        0.0,
        0.0,
        1.0,
        0.0,
        0.0,
        -1.0,
        0.0,
        0.0,
        0.0,
        0.0,
        0.0,
        1.0
      ],
      "name": "5ec386e4f07a441c83e49ee587afb4a1.fbx"
    },
    {
      "children": [
        3,
        5,
        9,
        11,
        13,
        15,
        17,
        19
      ],
      "name": "RootNode"
    },
    {
      "children": [
        4
      ],
      "matrix": [
        2.5399999618530273,
        0.0,
        0.0,
        0.0,
        0.0,
        5.6399328803925005e-16,
        -2.5399999618530273,
        0.0,
        0.0,
        2.5399999618530273,
        5.6399328803925005e-16,
        0.0,
        0.0,
        0.0,
        0.0,
        1.0
      ],
      "name": "Box001"
    },
    {
      "mesh": 0,
      "name": "Box001_cliff_0"
    },
    {
      "children": [
        6,
        7,
        8
      ],
      "matrix": [
        2.27263463144253,
        -0.45603871924803596,
        -1.0386338742444654,
        0.0,
        -1.0414376173822546,
        0.08295831075093903,
        -2.3151944656965435,
        0.0,
        0.4495990739343544,
        2.4973478755346323,
        -0.11275667383090587,
        0.0,
        183.33303833007813,
        -191.1679229736328,
        451.7213439941406,
        1.0
      ],
      "name": "Cylinder003"
    },
    {
      "mesh": 1,
      "name": "Cylinder003_wood1_0"
    },
    {
      "mesh": 2,
      "name": "Cylinder003_wood2_0"
    },
    {
      "mesh": 3,
      "name": "Cylinder003_wood_0"
    },
    {
      "children": [
        10
      ],
      "matrix": [
        2.5399999618530273,
        0.0,
        0.0,
        0.0,
        0.0,
        5.6399328803925005e-16,
        -2.5399999618530273,
        0.0,
        0.0,
        2.5399999618530273,
        5.6399328803925005e-16,
        0.0,
        0.0,
        0.0,
        0.0,
        1.0
      ],
      "name": "Object001"
    },
    {
      "mesh": 4,
      "name": "Object001_boki_0"
    },
    {
      "children": [
        12
      ],
      "matrix": [
        2.532281811877671,
        -0.15070726675938792,
        0.1282027737329994,
        0.0,
        0.1519696579257541,
        0.42753674632167693,
        -2.4991433251872492,
        0.0,
        0.12670380624452146,
        2.4992197695488825,
        0.43525451771643,
        0.0,
        305.49658203125,
        9.207941055297852,
        923.8687133789063,
        1.0
      ],
      "name": "Box219"
    },
    {
      "mesh": 5,
      "name": "Box219_worek_0"
    },
    {
      "children": [
        14
      ],
      "matrix": [
        2.024660797343017,
        8.812395125613282e-17,
        -1.5337367642185928,
        0.0,
        0.11385396545567189,
        2.532991900075539,
        0.15029675616962088,
        0.0,
        1.529505062582579,
        -0.18855195667266836,
        2.019074597280286,
        0.0,
        -482.0426330566406,
        -28.46746826171875,
        400.84393310546875,
        1.0
      ],
      "name": "Box224"
    },
    {
      "mesh": 6,
      "name": "Box224_wood1_0"
    },
    {
      "children": [
        16
      ],
      "matrix": [
        1.6421531105878722,
        -1.5514708134940065,
        -1.1609785882936003,
        0.0,
        -0.8973725884049156,
        0.7399061783121327,
        -2.2580657853765858,
        0.0,
        1.7174560853714476,
        1.8700473171514032,
        -0.06976698824517384,
        0.0,
        -413.29730224609375,
        22.002696990966797,
        902.1573486328125,
        1.0
      ],
      "name": "Box225"
    },
    {
      "mesh": 7,
      "name": "Box225_stone_0"
    },
    {
      "children": [
        18
      ],
      "matrix": [
        2.5399999618530273,
        0.0,
        0.0,
        0.0,
        0.0,
        5.6399328803925005e-16,
        -2.5399999618530273,
        0.0,
        0.0,
        2.5399999618530273,
        5.6399328803925005e-16,
        0.0,
        0.0,
        0.0,
        0.0,
        1.0
      ],
      "name": "Object002"
    },
    {
      "mesh": 8,
      "name": "Object002_ziemia_0"
    },
    {
      "children": [
        20
      ],
      "matrix": [
        2.5399999618530273,
        0.0,
        0.0,
        0.0,
        0.0,
        5.6399328803925005e-16,
        -2.5399999618530273,
        0.0,
        0.0,
        2.5399999618530273,
        5.6399328803925005e-16,
        0.0,
        0.0,
        0.0,
        0.0,
        1.0
      ],
      "name": "Object003"
    },
    {
      "mesh": 9,
      "name": "Object003_ziemia1_0"
    }
  ],
  "samplers": [
    {
      "magFilter": 9729,
      "minFilter": 9987,
      "wrapS": 10497,
      "wrapT": 10497
    }
  ],
  "scene": 0,
  "scenes": [
    {
      "name": "Sketchfab_Scene",
      "nodes": [
        0
      ]
    }
  ],
  "textures": [
    {
      "sampler": 0,
      "source": 0
    },
    {
      "sampler": 0,
      "source": 1
    },
    {
      "sampler": 0,
      "source": 2
    },
    {
      "sampler": 0,
      "source": 3
    },
    {
      "sampler": 0,
      "source": 4
    },
    {
      "sampler": 0,
      "source": 5
    },
    {
      "sampler": 0,
      "source": 6
    },
    {
      "sampler": 0,
      "source": 7
    },
    {
      "sampler": 0,
      "source": 8
    },
    {
      "sampler": 0,
      "source": 9
    },
    {
      "sampler": 0,
      "source": 10
    }
  ]
}
